# xmcd
#
# Track frame offsets:
#	182
#	11637
#	21530
#	32050
#	40202
#	50707
#	64177
#	76547
#	87282
#	102302
#	116027
#	127227
#	139942
#	149377
#	161075
#	169472
#	179855
#	191115
#
# Disc length: 2726 seconds
#
# Revision: 1
# Processed by: cddbd v1.5.2PL0 Copyright (c) Steve Scherf et al.
# Submitted via: EZCDAudioConverter 7.0.0.1
#
DISCID=130aa412
DTITLE=Various Artist - Golden Guitar Melodies
DYEAR=1900
DGENRE=clasical
TTITLE0=A. Lara - Solamente Unu Vez
TTITLE1=O. Farres - Quizas Quizas Quizas
TTITLE2=P. B. Ruiz - Quien Sera
TTITLE3=Utrera, Momendez, Rivera - Green Eyes
TTITLE4=Velarde - Dahil Say Yo
TTITLE5=Lacalle - Amapola
TTITLE6=T. Mendez - Cu Cu Ru Cu Cu Paloma
TTITLE7=Grever - Te Quiro Dijiste
TTITLE8=M. Lecuona - Taba
TTITLE9=Dominguez - Perfidia
TTITLE10=G. Ruiz - Amor
TTITLE11=Carmichael - Stardust
TTITLE12=Steiner - Theme from a Summer Place
TTITLE13=Lordan - Apache
TTITLE14=Weedon - China Doll
TTITLE15=Weedon - Lonely Night
TTITLE16=Zacharias - China Boogie
TTITLE17=Stanton, Fotine - Blue Guitar
EXTD=
EXTT0=
EXTT1=
EXTT2=
EXTT3=
EXTT4=
EXTT5=
EXTT6=
EXTT7=
EXTT8=
EXTT9=
EXTT10=
EXTT11=
EXTT12=
EXTT13=
EXTT14=
EXTT15=
EXTT16=
EXTT17=
PLAYORDER=
